<svg fill="#4C4C4C" xmlns="http://www.w3.org/2000/svg" xmlns:xlink="http://www.w3.org/1999/xlink" version="1.2" baseProfile="tiny" x="0px" y="0px" viewBox="0 0 100 100" xml:space="preserve"><path d="M92.5,17.5h-65c-1.381,0-2.5,1.119-2.5,2.5s1.119,2.5,2.5,2.5h65c1.381,0,2.5-1.119,2.5-2.5S93.881,17.5,92.5,17.5z"></path><path d="M27.5,32.5h45c1.381,0,2.5-1.119,2.5-2.5s-1.119-2.5-2.5-2.5h-45c-1.381,0-2.5,1.119-2.5,2.5S26.119,32.5,27.5,32.5z"></path><path d="M92.5,42.5h-65c-1.381,0-2.5,1.119-2.5,2.5s1.119,2.5,2.5,2.5h65c1.381,0,2.5-1.119,2.5-2.5S93.881,42.5,92.5,42.5z"></path><path d="M27.5,57.5h55c1.381,0,2.5-1.119,2.5-2.5s-1.119-2.5-2.5-2.5h-55c-1.381,0-2.5,1.119-2.5,2.5S26.119,57.5,27.5,57.5z"></path><path d="M92.5,67.5h-65c-1.381,0-2.5,1.119-2.5,2.5s1.119,2.5,2.5,2.5h65c1.381,0,2.5-1.119,2.5-2.5S93.881,67.5,92.5,67.5z"></path><path d="M72.5,82.5c1.381,0,2.5-1.119,2.5-2.5s-1.119-2.5-2.5-2.5h-45c-1.381,0-2.5,1.119-2.5,2.5s1.119,2.5,2.5,2.5H72.5z"></path><path d="M12.5,32.5c4.136,0,7.5-3.364,7.5-7.5s-3.364-7.5-7.5-7.5S5,20.864,5,25S8.364,32.5,12.5,32.5z M12.5,22.5   c1.378,0,2.5,1.121,2.5,2.5s-1.122,2.5-2.5,2.5S10,26.379,10,25S11.122,22.5,12.5,22.5z"></path><path d="M12.5,57.5c4.136,0,7.5-3.364,7.5-7.5s-3.364-7.5-7.5-7.5S5,45.864,5,50S8.364,57.5,12.5,57.5z M12.5,47.5   c1.378,0,2.5,1.121,2.5,2.5s-1.122,2.5-2.5,2.5S10,51.379,10,50S11.122,47.5,12.5,47.5z"></path><path d="M12.5,82.5c4.136,0,7.5-3.364,7.5-7.5s-3.364-7.5-7.5-7.5S5,70.864,5,75S8.364,82.5,12.5,82.5z M12.5,72.5   c1.378,0,2.5,1.121,2.5,2.5s-1.122,2.5-2.5,2.5S10,76.379,10,75S11.122,72.5,12.5,72.5z"></path></svg>